<?xml version="1.0" standalone="no"?>
<!DOCTYPE svg PUBLIC "-//W3C//DTD SVG 20010904//EN"
 "http://www.w3.org/TR/2001/REC-SVG-20010904/DTD/svg10.dtd">
<svg version="1.0" xmlns="http://www.w3.org/2000/svg"
 width="539.000000pt" height="280.000000pt" viewBox="0 0 539.000000 280.000000"
 preserveAspectRatio="xMidYMid meet">

<g transform="translate(0.000000,280.000000) scale(0.100000,-0.100000)"
fill="#000000" stroke="none">
<path d="M4775 2365 c-238 -27 -587 -64 -880 -95 -159 -17 -432 -46 -605 -65
-173 -19 -407 -44 -520 -55 -373 -37 -744 -81 -785 -92 -22 -5 -66 -30 -98
-54 -32 -24 -75 -48 -95 -53 -20 -5 -154 -22 -297 -38 l-260 -28 -193 -190
c-106 -104 -192 -196 -192 -202 0 -19 51 -16 185 12 214 46 276 56 308 53 l32
-3 62 -249 c61 -245 80 -296 108 -296 17 0 386 122 690 228 127 44 451 157
720 251 270 93 686 238 925 321 239 84 505 176 590 205 85 29 254 88 375 130
193 68 429 145 442 145 2 0 3 8 1 17 -2 12 -29 22 -103 39 -132 31 -252 36
-410 19z m287 -46 c11 -6 18 -12 16 -14 -10 -8 -256 -54 -1003 -186 -93 -16
-215 -38 -270 -49 -55 -10 -176 -33 -270 -50 -93 -17 -289 -53 -435 -80 -554
-103 -539 -100 -583 -90 -66 14 -427 167 -427 180 0 11 76 20 685 84 249 26
524 56 995 106 151 16 365 39 475 50 110 12 317 33 460 49 258 27 306 27 357
0z m-217 -129 c-53 -19 -242 -85 -800 -280 -192 -67 -498 -173 -680 -237 -181
-63 -451 -157 -600 -208 -148 -52 -376 -130 -505 -175 -129 -45 -246 -85 -260
-90 -14 -4 -96 -33 -184 -64 -168 -59 -196 -65 -196 -41 0 28 52 300 70 365
21 77 51 149 56 135 2 -5 8 -45 13 -89 5 -43 16 -85 24 -93 15 -15 222 -73
261 -73 24 0 92 20 341 99 189 61 1010 317 1175 368 63 19 180 55 260 80 80
24 195 59 255 78 322 99 760 237 764 241 2 2 16 4 30 3 20 0 14 -5 -24 -19z
m-850 -191 c-182 -59 -391 -128 -465 -153 -361 -120 -453 -150 -685 -221 -137
-42 -354 -109 -482 -150 -127 -41 -236 -75 -242 -75 -6 0 -11 6 -11 14 0 13
134 313 145 324 4 5 69 17 370 72 94 17 229 41 300 55 72 13 294 54 495 91
201 36 482 87 625 114 143 26 264 45 270 41 5 -3 -139 -53 -320 -112z m-1960
7 c46 -22 48 -24 25 -29 -37 -9 -148 -16 -154 -10 -6 6 56 62 69 63 6 0 33
-11 60 -24z m250 -106 c138 -59 139 -60 128 -71 -8 -8 -339 -68 -526 -95 -54
-8 -107 -19 -117 -24 -59 -31 -124 -219 -170 -488 -11 -63 -24 -120 -29 -125
-13 -13 -58 133 -125 404 -30 125 -65 255 -77 289 -11 34 -19 63 -18 65 4 3
141 20 469 55 107 12 220 25 250 29 90 14 94 13 215 -39z m-956 -147 c26 -88
27 -130 4 -137 -10 -3 -76 -15 -148 -26 -71 -11 -145 -22 -162 -25 -18 -3 -33
-2 -33 3 0 12 236 230 275 253 16 10 32 15 36 11 3 -4 16 -39 28 -79z m864
-40 c3 -5 -28 -78 -68 -163 l-72 -155 -44 2 c-47 2 -166 29 -187 42 -7 4 -14
47 -18 113 l-7 106 124 22 c68 12 140 26 159 30 47 11 108 12 113 3z"/>
<path d="M4817 1999 c-9 -5 -24 -23 -32 -38 -8 -16 -39 -42 -69 -59 -30 -17
-57 -36 -61 -41 -9 -15 -55 -193 -55 -215 0 -17 6 -18 50 -13 74 9 138 40 151
74 24 62 60 199 65 249 6 49 5 54 -12 54 -11 0 -27 -5 -37 -11z m-68 -177
c-12 -56 -51 -139 -56 -123 -6 15 25 140 40 158 17 22 25 4 16 -35z"/>
<path d="M4300 1761 c-30 -10 -65 -24 -78 -32 -26 -16 -53 -94 -72 -207 -14
-85 -7 -103 34 -84 32 14 49 48 71 142 23 99 41 140 59 140 22 0 20 -22 -9
-114 -29 -91 -26 -119 13 -114 20 2 33 14 50 46 24 42 66 218 56 234 -8 13
-64 8 -124 -11z"/>
<path d="M3910 1693 c-20 -7 -50 -34 -50 -45 0 -13 38 -9 70 7 50 26 33 57
-20 38z"/>
<path d="M3893 1613 c-17 -8 -36 -27 -42 -41 -22 -55 -45 -196 -42 -254 1 -26
43 -23 68 5 35 37 80 285 55 301 -4 2 -22 -2 -39 -11z"/>
<path d="M3576 1487 c-17 -17 -27 -47 -41 -123 -17 -99 -40 -172 -51 -161 -3
3 0 39 7 81 14 85 8 103 -35 92 -40 -10 -52 -29 -70 -122 -18 -93 -23 -107
-35 -100 -4 3 -4 29 0 58 28 184 23 219 -26 196 -31 -14 -43 -43 -60 -151 -19
-115 -19 -163 -1 -170 7 -3 44 6 82 19 38 14 83 29 99 34 17 5 55 24 85 42 50
30 56 38 73 93 22 73 46 205 39 223 -7 19 -41 14 -66 -11z"/>
<path d="M3005 1360 c-12 -4 -27 -15 -34 -23 -14 -18 -45 -190 -56 -314 -6
-72 -5 -84 10 -89 10 -4 28 2 43 13 25 18 29 34 54 174 27 154 32 240 13 245
-5 1 -19 -1 -30 -6z"/>
<path d="M2661 1259 c-20 -12 -31 -26 -29 -37 5 -25 31 -26 61 -2 51 40 23 73
-32 39z"/>
<path d="M1355 1220 c-3 -5 -4 -14 0 -20 8 -13 35 -1 35 16 0 16 -26 19 -35 4z"/>
<path d="M1256 1174 c-9 -23 -8 -24 12 -24 19 0 42 18 42 32 0 15 -48 8 -54
-8z"/>
<path d="M2662 1175 c-17 -8 -37 -24 -42 -37 -6 -13 -16 -87 -23 -166 -11
-121 -11 -145 1 -154 18 -16 62 8 79 42 22 47 43 313 25 324 -4 2 -22 -2 -40
-9z"/>
<path d="M1182 1123 c-7 -3 -17 -13 -22 -24 -9 -16 -7 -19 15 -19 14 0 28 7
32 16 7 18 -7 33 -25 27z"/>
<path d="M504 1046 c-10 -8 -16 -18 -12 -21 12 -12 58 4 58 20 0 19 -20 19
-46 1z"/>
<path d="M2325 1051 c-112 -28 -213 -138 -136 -149 26 -4 71 32 71 58 0 21 20
40 43 40 32 0 18 -51 -21 -75 -84 -51 -98 -62 -109 -86 -15 -31 -20 -176 -7
-189 12 -12 179 26 198 46 19 19 34 96 44 229 6 69 5 115 -1 123 -10 13 -35
14 -82 3z m-19 -184 c9 -26 -15 -142 -33 -155 -14 -10 -19 -10 -25 1 -9 18 7
134 23 153 14 18 28 18 35 1z"/>
<path d="M1089 1029 c-16 -31 7 -52 27 -25 8 11 14 26 14 33 0 21 -28 15 -41
-8z"/>
<path d="M600 1032 c0 -5 9 -20 20 -33 l20 -24 -2 30 c-2 19 -9 31 -20 33 -10
2 -18 -1 -18 -6z"/>
<path d="M1895 985 c-66 -17 -184 -62 -212 -81 -38 -24 -28 -37 23 -31 l47 5
-6 -112 c-4 -61 -9 -149 -13 -196 -6 -100 2 -119 42 -105 35 13 38 24 58 236
22 231 18 217 76 241 45 19 62 40 43 51 -5 3 -31 -1 -58 -8z"/>
<path d="M437 962 c-20 -22 -22 -42 -4 -42 19 0 37 21 37 42 0 23 -12 23 -33
0z"/>
<path d="M1019 939 c-15 -15 -18 -24 -10 -32 12 -12 51 17 51 40 0 19 -17 16
-41 -8z"/>
<path d="M614 927 c-3 -9 -4 -26 -2 -38 3 -22 4 -22 21 -5 20 20 19 47 0 54
-7 2 -16 -3 -19 -11z"/>
<path d="M390 859 c-7 -11 -9 -27 -6 -36 9 -22 36 3 36 33 0 30 -16 31 -30 3z"/>
<path d="M953 863 c-7 -2 -13 -19 -13 -36 l1 -32 24 28 c36 40 30 58 -12 40z"/>
<path d="M566 814 c-9 -8 -16 -22 -16 -30 0 -21 28 -17 40 5 21 40 6 55 -24
25z"/>
<path d="M860 760 c-9 -16 -8 -22 5 -26 18 -7 45 12 45 32 0 21 -38 17 -50 -6z"/>
<path d="M385 750 c-4 -6 1 -23 12 -38 l18 -27 3 23 c6 41 -16 69 -33 42z"/>
<path d="M497 722 c-10 -10 -17 -24 -17 -30 0 -19 28 -14 40 7 21 41 6 55 -23
23z"/>
<path d="M773 693 c-23 -9 -14 -33 11 -33 25 0 51 22 39 33 -7 8 -32 8 -50 0z"/>
<path d="M409 641 c-29 -24 -18 -38 17 -23 14 7 36 9 50 6 29 -7 33 11 5 26
-28 15 -46 12 -72 -9z"/>
<path d="M678 639 c-27 -15 -21 -31 9 -27 17 2 29 10 31 21 4 19 -14 22 -40 6z"/>
<path d="M550 605 c0 -10 10 -15 30 -15 20 0 30 5 30 15 0 10 -10 15 -30 15
-20 0 -30 -5 -30 -15z"/>
<path d="M315 560 c-10 -11 -15 -23 -12 -27 11 -10 57 15 57 32 0 21 -24 19
-45 -5z"/>
<path d="M216 501 c-11 -12 -14 -21 -7 -25 15 -10 51 12 51 29 0 21 -24 19
-44 -4z"/>
<path d="M91 457 c-9 -11 -9 -16 1 -19 19 -7 59 5 59 17 -1 16 -47 17 -60 2z"/>
</g>
</svg>
