<?xml version="1.0" encoding="UTF-8" standalone="no"?>
<svg
   xmlns:dc="http://purl.org/dc/elements/1.1/"
   xmlns:cc="http://creativecommons.org/ns#"
   xmlns:rdf="http://www.w3.org/1999/02/22-rdf-syntax-ns#"
   xmlns:svg="http://www.w3.org/2000/svg"
   xmlns="http://www.w3.org/2000/svg"
   xmlns:sodipodi="http://sodipodi.sourceforge.net/DTD/sodipodi-0.dtd"
   xmlns:inkscape="http://www.inkscape.org/namespaces/inkscape"
   version="1.0"
   width="539.000000pt"
   height="280.000000pt"
   viewBox="0 0 539.000000 280.000000"
   preserveAspectRatio="xMidYMid meet"
   id="svg70"
   sodipodi:docname="logo-bw.svg"
   inkscape:version="0.92.5 (2060ec1f9f, 2020-04-08)">
  <metadata
     id="metadata76">
    <rdf:RDF>
      <cc:Work
         rdf:about="">
        <dc:format>image/svg+xml</dc:format>
        <dc:type
           rdf:resource="http://purl.org/dc/dcmitype/StillImage" />
        <dc:title></dc:title>
      </cc:Work>
    </rdf:RDF>
  </metadata>
  <defs
     id="defs74" />
  <sodipodi:namedview
     pagecolor="#ffffff"
     bordercolor="#666666"
     borderopacity="1"
     objecttolerance="10"
     gridtolerance="10"
     guidetolerance="10"
     inkscape:pageopacity="0"
     inkscape:pageshadow="2"
     inkscape:window-width="1848"
     inkscape:window-height="1136"
     id="namedview72"
     showgrid="false"
     inkscape:zoom="3.014715"
     inkscape:cx="80.700029"
     inkscape:cy="160.13016"
     inkscape:window-x="72"
     inkscape:window-y="27"
     inkscape:window-maximized="1"
     inkscape:current-layer="svg70" />
  <g
     transform="translate(0.000000,280.000000) scale(0.100000,-0.100000)"
     fill="#000000"
     stroke="none"
     id="g68">
    <path
       d="M4775 2365 c-238 -27 -587 -64 -880 -95 -159 -17 -432 -46 -605 -65 -173 -19 -407 -44 -520 -55 -373 -37 -744 -81 -785 -92 -22 -5 -66 -30 -98 -54 -32 -24 -75 -48 -95 -53 -20 -5 -154 -22 -297 -38 l-260 -28 -193 -190 c-106 -104 -192 -196 -192 -202 0 -19 51 -16 185 12 214 46 276 56 308 53 l32 -3 62 -249 c61 -245 80 -296 108 -296 17 0 386 122 690 228 127 44 451 157 720 251 270 93 686 238 925 321 239 84 505 176 590 205 85 29 254 88 375 130 193 68 429 145 442 145 2 0 3 8 1 17 -2 12 -29 22 -103 39 -132 31 -252 36 -410 19z m287 -46 c11 -6 18 -12 16 -14 -10 -8 -256 -54 -1003 -186 -93 -16 -215 -38 -270 -49 -55 -10 -176 -33 -270 -50 -93 -17 -289 -53 -435 -80 -554 -103 -539 -100 -583 -90 -66 14 -427 167 -427 180 0 11 76 20 685 84 249 26 524 56 995 106 151 16 365 39 475 50 110 12 317 33 460 49 258 27 306 27 357 0z m-217 -129 c-53 -19 -242 -85 -800 -280 -192 -67 -498 -173 -680 -237 -181 -63 -451 -157 -600 -208 -148 -52 -376 -130 -505 -175 -129 -45 -246 -85 -260 -90 -14 -4 -96 -33 -184 -64 -168 -59 -196 -65 -196 -41 0 28 52 300 70 365 21 77 51 149 56 135 2 -5 8 -45 13 -89 5 -43 16 -85 24 -93 15 -15 222 -73 261 -73 24 0 92 20 341 99 189 61 1010 317 1175 368 63 19 180 55 260 80 80 24 195 59 255 78 322 99 760 237 764 241 2 2 16 4 30 3 20 0 14 -5 -24 -19z m-850 -191 c-182 -59 -391 -128 -465 -153 -361 -120 -453 -150 -685 -221 -137 -42 -354 -109 -482 -150 -127 -41 -236 -75 -242 -75 -6 0 -11 6 -11 14 0 13 134 313 145 324 4 5 69 17 370 72 94 17 229 41 300 55 72 13 294 54 495 91 201 36 482 87 625 114 143 26 264 45 270 41 5 -3 -139 -53 -320 -112z m-1960 7 c46 -22 48 -24 25 -29 -37 -9 -148 -16 -154 -10 -6 6 56 62 69 63 6 0 33 -11 60 -24z m250 -106 c138 -59 139 -60 128 -71 -8 -8 -339 -68 -526 -95 -54 -8 -107 -19 -117 -24 -59 -31 -124 -219 -170 -488 -11 -63 -24 -120 -29 -125 -13 -13 -58 133 -125 404 -30 125 -65 255 -77 289 -11 34 -19 63 -18 65 4 3 141 20 469 55 107 12 220 25 250 29 90 14 94 13 215 -39z m-956 -147 c26 -88 27 -130 4 -137 -10 -3 -76 -15 -148 -26 -71 -11 -145 -22 -162 -25 -18 -3 -33 -2 -33 3 0 12 236 230 275 253 16 10 32 15 36 11 3 -4 16 -39 28 -79z m864 -40 c3 -5 -28 -78 -68 -163 l-72 -155 -44 2 c-47 2 -166 29 -187 42 -7 4 -14 47 -18 113 l-7 106 124 22 c68 12 140 26 159 30 47 11 108 12 113 3z"
       id="path2" />
    <path
       d="M4817 1999 c-9 -5 -24 -23 -32 -38 -8 -16 -39 -42 -69 -59 -30 -17 -57 -36 -61 -41 -9 -15 -55 -193 -55 -215 0 -17 6 -18 50 -13 74 9 138 40 151 74 24 62 60 199 65 249 6 49 5 54 -12 54 -11 0 -27 -5 -37 -11z m-68 -177 c-12 -56 -51 -139 -56 -123 -6 15 25 140 40 158 17 22 25 4 16 -35z"
       id="path4" />
    <path
       d="M4300 1761 c-30 -10 -65 -24 -78 -32 -26 -16 -53 -94 -72 -207 -14 -85 -7 -103 34 -84 32 14 49 48 71 142 23 99 41 140 59 140 22 0 20 -22 -9 -114 -29 -91 -26 -119 13 -114 20 2 33 14 50 46 24 42 66 218 56 234 -8 13 -64 8 -124 -11z"
       id="path6" />
    <path
       d="M3910 1693 c-20 -7 -50 -34 -50 -45 0 -13 38 -9 70 7 50 26 33 57 -20 38z"
       id="path8" />
    <path
       d="M3893 1613 c-17 -8 -36 -27 -42 -41 -22 -55 -45 -196 -42 -254 1 -26 43 -23 68 5 35 37 80 285 55 301 -4 2 -22 -2 -39 -11z"
       id="path10" />
    <path
       d="M3576 1487 c-17 -17 -27 -47 -41 -123 -17 -99 -40 -172 -51 -161 -3 3 0 39 7 81 14 85 8 103 -35 92 -40 -10 -52 -29 -70 -122 -18 -93 -23 -107 -35 -100 -4 3 -4 29 0 58 28 184 23 219 -26 196 -31 -14 -43 -43 -60 -151 -19 -115 -19 -163 -1 -170 7 -3 44 6 82 19 38 14 83 29 99 34 17 5 55 24 85 42 50 30 56 38 73 93 22 73 46 205 39 223 -7 19 -41 14 -66 -11z"
       id="path12" />
    <path
       d="M3005 1360 c-12 -4 -27 -15 -34 -23 -14 -18 -45 -190 -56 -314 -6 -72 -5 -84 10 -89 10 -4 28 2 43 13 25 18 29 34 54 174 27 154 32 240 13 245 -5 1 -19 -1 -30 -6z"
       id="path14" />
    <path
       d="M2661 1259 c-20 -12 -31 -26 -29 -37 5 -25 31 -26 61 -2 51 40 23 73 -32 39z"
       id="path16" />
    <path
       d="M1355 1220 c-3 -5 -4 -14 0 -20 8 -13 35 -1 35 16 0 16 -26 19 -35 4z"
       id="path18" />
    <path
       d="M1256 1174 c-9 -23 -8 -24 12 -24 19 0 42 18 42 32 0 15 -48 8 -54 -8z"
       id="path20" />
    <path
       d="M2662 1175 c-17 -8 -37 -24 -42 -37 -6 -13 -16 -87 -23 -166 -11 -121 -11 -145 1 -154 18 -16 62 8 79 42 22 47 43 313 25 324 -4 2 -22 -2 -40 -9z"
       id="path22" />
    <path
       d="M1182 1123 c-7 -3 -17 -13 -22 -24 -9 -16 -7 -19 15 -19 14 0 28 7 32 16 7 18 -7 33 -25 27z"
       id="path24" />
    <path
       d="M504 1046 c-10 -8 -16 -18 -12 -21 12 -12 58 4 58 20 0 19 -20 19 -46 1z"
       id="path26" />
    <path
       d="M2325 1051 c-112 -28 -213 -138 -136 -149 26 -4 71 32 71 58 0 21 20 40 43 40 32 0 18 -51 -21 -75 -84 -51 -98 -62 -109 -86 -15 -31 -20 -176 -7 -189 12 -12 179 26 198 46 19 19 34 96 44 229 6 69 5 115 -1 123 -10 13 -35 14 -82 3z m-19 -184 c9 -26 -15 -142 -33 -155 -14 -10 -19 -10 -25 1 -9 18 7 134 23 153 14 18 28 18 35 1z"
       id="path28" />
    <path
       d="M1089 1029 c-16 -31 7 -52 27 -25 8 11 14 26 14 33 0 21 -28 15 -41 -8z"
       id="path30" />
    <path
       d="M600 1032 c0 -5 9 -20 20 -33 l20 -24 -2 30 c-2 19 -9 31 -20 33 -10 2 -18 -1 -18 -6z"
       id="path32" />
    <path
       d="M1895 985 c-66 -17 -184 -62 -212 -81 -38 -24 -28 -37 23 -31 l47 5 -6 -112 c-4 -61 -9 -149 -13 -196 -6 -100 2 -119 42 -105 35 13 38 24 58 236 22 231 18 217 76 241 45 19 62 40 43 51 -5 3 -31 -1 -58 -8z"
       id="path34" />
    <path
       d="M437 962 c-20 -22 -22 -42 -4 -42 19 0 37 21 37 42 0 23 -12 23 -33 0z"
       id="path36" />
    <path
       d="M1019 939 c-15 -15 -18 -24 -10 -32 12 -12 51 17 51 40 0 19 -17 16 -41 -8z"
       id="path38" />
    <path
       d="M614 927 c-3 -9 -4 -26 -2 -38 3 -22 4 -22 21 -5 20 20 19 47 0 54 -7 2 -16 -3 -19 -11z"
       id="path40" />
    <path
       d="M390 859 c-7 -11 -9 -27 -6 -36 9 -22 36 3 36 33 0 30 -16 31 -30 3z"
       id="path42" />
    <path
       d="M953 863 c-7 -2 -13 -19 -13 -36 l1 -32 24 28 c36 40 30 58 -12 40z"
       id="path44" />
    <path
       d="M566 814 c-9 -8 -16 -22 -16 -30 0 -21 28 -17 40 5 21 40 6 55 -24 25z"
       id="path46" />
    <path
       d="M860 760 c-9 -16 -8 -22 5 -26 18 -7 45 12 45 32 0 21 -38 17 -50 -6z"
       id="path48" />
    <path
       d="M385 750 c-4 -6 1 -23 12 -38 l18 -27 3 23 c6 41 -16 69 -33 42z"
       id="path50" />
    <path
       d="M497 722 c-10 -10 -17 -24 -17 -30 0 -19 28 -14 40 7 21 41 6 55 -23 23z"
       id="path52" />
    <path
       d="M773 693 c-23 -9 -14 -33 11 -33 25 0 51 22 39 33 -7 8 -32 8 -50 0z"
       id="path54" />
    <path
       d="M409 641 c-29 -24 -18 -38 17 -23 14 7 36 9 50 6 29 -7 33 11 5 26 -28 15 -46 12 -72 -9z"
       id="path56" />
    <path
       d="M678 639 c-27 -15 -21 -31 9 -27 17 2 29 10 31 21 4 19 -14 22 -40 6z"
       id="path58" />
    <path
       d="M550 605 c0 -10 10 -15 30 -15 20 0 30 5 30 15 0 10 -10 15 -30 15 -20 0 -30 -5 -30 -15z"
       id="path60" />
    <path
       d="M315 560 c-10 -11 -15 -23 -12 -27 11 -10 57 15 57 32 0 21 -24 19 -45 -5z"
       id="path62" />
    <path
       d="M216 501 c-11 -12 -14 -21 -7 -25 15 -10 51 12 51 29 0 21 -24 19 -44 -4z"
       id="path64" />
    <path
       d="M91 457 c-9 -11 -9 -16 1 -19 19 -7 59 5 59 17 -1 16 -47 17 -60 2z"
       id="path66" />
  </g>
  <path
     style="fill:#ffffff;stroke-width:0.66341263"
     d="m 203.55334,236.74946 c -2.12895,-2.35247 -5.9345,-15.03339 -13.08963,-43.61753 l -6.83712,-27.31376 -3.39415,-0.42407 c -4.15535,-0.51918 -10.41896,0.45752 -36.11016,5.63073 -20.31747,4.09115 -28.18317,5.16129 -29.80621,4.0552 -1.2876,-0.87751 3.32417,-5.88152 29.37379,-31.87205 l 20.88368,-20.8363 22.77915,-2.51853 c 35.46008,-3.92056 50.34268,-5.91404 53.71318,-7.19473 1.70705,-0.64863 6.57218,-3.48912 10.81141,-6.3122 4.23923,-2.82308 9.14514,-5.67906 10.90203,-6.346624 4.90494,-1.863729 40.00047,-6.150696 108.23009,-13.220452 46.80522,-4.849823 200.84564,-21.366306 242.47731,-25.998842 44.40773,-4.941441 58.30805,-4.808256 80.39676,0.770316 4.21191,1.063734 8.37003,2.400582 9.24025,2.970776 1.70156,1.114903 2.10214,2.87202 0.75296,3.302754 -0.45609,0.145611 -7.09851,2.255776 -14.76093,4.689256 -13.38958,4.252353 -85.14391,28.962716 -178.12629,61.342146 -24.26432,8.44962 -59.49153,20.68689 -78.28269,27.19396 -18.79116,6.50706 -54.01837,18.75596 -78.28269,27.21978 -90.81131,31.67656 -141.56283,48.77884 -146.9397,49.51582 -2.15604,0.29552 -2.90489,0.0982 -3.93104,-1.03565 z m 21.59691,-8.9669 c 3.05106,-0.88433 12.11516,-3.89821 20.14245,-6.6975 8.0273,-2.7993 26.53651,-9.2139 41.13159,-14.25466 C 441.50003,153.27121 643.77207,82.702047 648.31587,80.572774 l 2.98536,-1.398968 -2.77442,-0.224959 c -2.09176,-0.169605 -7.07052,1.163258 -20.23409,5.41686 -23.23189,7.507025 -52.25111,16.558733 -108.6789,33.899253 -66.59436,20.46475 -132.67258,41.064 -200.22898,62.41947 -44.07739,13.93344 -45.46745,14.27627 -52.22621,12.88047 -5.382,-1.11148 -21.07561,-5.56828 -25.70011,-7.29852 -3.58709,-1.3421 -3.81568,-1.56711 -4.73408,-4.65971 -0.53075,-1.78722 -1.44019,-6.61917 -2.02096,-10.73765 -1.34324,-9.52538 -1.56017,-10.47349 -2.39647,-10.47349 -0.9291,0 -3.37266,5.669 -5.88367,13.64998 -3.4234,10.88089 -11.32551,51.97079 -10.43894,54.28114 0.56114,1.46232 2.67678,1.33674 9.16585,-0.54409 z m -14.40696,-3.86527 c 0.53913,-1.91561 2.20791,-9.90144 3.70842,-17.74629 7.42375,-38.81243 15.50801,-59.51505 23.94024,-61.30756 1.24127,-0.26387 14.49683,-2.51846 29.45678,-5.01019 34.45425,-5.73871 52.35099,-9.19174 53.87066,-10.39392 1.13161,-0.89519 1.10986,-1.00179 -0.42544,-2.08479 -3.42273,-2.41439 -25.31708,-11.62579 -31.23918,-13.14296 -3.72756,-0.95496 -4.79051,-0.91428 -17.72956,0.67841 -7.57034,0.93185 -28.54177,3.33685 -46.60318,5.34444 -43.32758,4.81601 -45.18496,5.06169 -45.55476,6.02538 -0.17212,0.44853 0.89282,4.73021 2.36653,9.51484 1.47372,4.78463 5.09968,18.32253 8.0577,30.08421 10.99046,43.70036 16.36205,61.52134 18.54372,61.52134 0.34531,0 1.06894,-1.56731 1.60807,-3.48291 z m 70.68085,-52.36766 c 9.87153,-21.25472 11.85182,-26.32208 10.59681,-27.11622 -1.38311,-0.87518 -7.4955,-0.71651 -13.22591,0.34333 -30.47474,5.63636 -37.97004,6.99442 -38.60293,6.99442 -1.36838,0 0.54939,26.26435 2.13397,29.22517 1.12599,2.10393 19.06317,6.23053 28.2525,6.49972 l 3.39325,0.0994 z m 36.84395,4.45594 c 17.87897,-5.61007 42.8067,-13.37636 55.39496,-17.25842 33.33384,-10.27977 45.73765,-14.26129 88.89729,-28.53529 21.3453,-7.05943 51.62696,-17.05922 67.29258,-22.22174 33.56042,-11.059663 45.48757,-15.283907 45.48757,-16.110362 0,-0.721184 -3.10876,-0.353412 -18.57556,2.197519 -11.57121,1.908433 -84.05618,15.059943 -155.23855,28.166143 -20.61555,3.79576 -49.87205,9.17185 -65.01444,11.94688 -15.14239,2.77502 -29.51463,5.49429 -31.93831,6.04282 l -4.40669,0.99734 -5.12339,11.07521 c -2.81786,6.09137 -7.20706,15.93634 -9.75377,21.87771 -3.85956,9.00422 -4.49005,10.97159 -3.7874,11.81822 0.55654,0.6706 1.42325,0.87784 2.55074,0.60991 0.93926,-0.2232 16.336,-4.99587 34.21497,-10.60594 z m -167.3586,-13.27714 c 22.35204,-3.49643 27.03425,-4.40533 28.0797,-5.45078 1.27553,-1.27554 1.24259,-7.16779 -0.0692,-12.37656 -2.12202,-8.42595 -5.0397,-16.34937 -6.0204,-16.34937 -2.15009,0 -6.37519,2.91206 -14.54463,10.02455 -10.94962,9.53298 -26.90405,25.15537 -26.44635,25.89595 0.58304,0.94338 3.58152,0.66819 19.00088,-1.74379 z M 360.7265,124.55487 c 13.38521,-2.3028 109.3782,-19.92362 146.28248,-26.852135 8.57461,-1.60982 31.71113,-5.784826 51.41448,-9.277789 88.1658,-15.629818 118.42296,-21.386638 118.60277,-22.565719 0.19421,-1.273563 -5.29702,-3.626062 -10.0313,-4.297504 -4.74078,-0.672362 -15.3696,-0.21178 -29.95707,1.298139 -9.00853,0.932456 -80.30449,8.472759 -132.01911,13.962424 -24.26432,2.575731 -76.3588,8.104459 -115.76551,12.286062 -107.23003,11.378612 -111.79689,11.940942 -110.74873,13.636902 1.61002,2.60507 47.90757,22.17009 56.9935,24.08506 4.92859,1.03877 7.10599,0.84238 25.22849,-2.27544 z m -90.33835,-13.93918 c 5.27102,-0.63441 6.41665,-0.97283 6.41665,-1.89549 0,-0.8553 -11.50114,-6.04157 -13.39786,-6.04157 -1.26612,0 -2.95529,1.15389 -5.96008,4.07139 -4.08158,3.96301 -4.14906,4.08364 -2.53467,4.53161 1.86501,0.51753 7.7455,0.26448 15.47596,-0.66594 z"
     id="path3781"
     inkscape:connector-curvature="0"
     transform="scale(0.74999998)" />
  <path
     style="fill:#ffffff;stroke-width:0.33170632"
     d="m 233.25255,311.52072 c -2.26023,-0.92172 -2.503,-5.2391 -1.2963,-23.05339 1.1203,-16.53882 1.98281,-31.99683 1.79576,-32.18388 -0.0821,-0.0821 -2.24716,0.0613 -4.81129,0.31857 -4.25011,0.42647 -6.69998,0.33273 -7.3125,-0.27979 -0.41118,-0.41118 0.59972,-1.83793 1.96654,-2.77547 5.49031,-3.766 24.85995,-10.84136 33.85992,-12.36837 1.94227,-0.32955 2.35478,-0.30812 3.06828,0.15938 1.01188,0.66301 1.03449,1.1633 0.10593,2.34377 -0.96469,1.22641 -3.4238,2.72703 -7.29791,4.4534 -1.76361,0.78589 -3.58904,1.82811 -4.0565,2.31604 -2.00572,2.09352 -2.56049,5.31933 -4.68401,27.2359 -2.27833,23.51434 -2.82328,27.34916 -4.32167,30.41176 -0.71035,1.4519 -1.12502,1.86332 -2.57197,2.55173 -2.09265,0.99563 -3.47381,1.26611 -4.44428,0.87035 z"
     id="path3783"
     inkscape:connector-curvature="0"
     transform="scale(0.74999998)" />
  <path
     style="fill:#ffffff;stroke-width:0.33170632"
     d="m 289.54444,286.64345 c -1.21986,-0.28797 -1.42793,-1.56328 -1.43425,-8.79072 -0.009,-9.89341 0.90144,-15.62055 2.89826,-18.23852 1.20081,-1.57434 4.0279,-3.68586 9.38726,-7.01122 2.51403,-1.5599 5.21791,-3.45781 6.00864,-4.21756 2.90305,-2.78939 4.01832,-6.86187 2.20459,-8.05027 -1.72894,-1.13284 -5.16479,0.0776 -6.64867,2.34226 -0.27772,0.42386 -0.62205,1.51143 -0.76517,2.41683 -0.45632,2.88667 -2.39643,5.22044 -5.75449,6.92209 -1.38559,0.70213 -2.03868,0.83718 -3.47322,0.71822 -7.75468,-0.64308 -1.33223,-10.62704 10.67733,-16.59833 3.21316,-1.59761 6.74992,-2.72879 10.56256,-3.37825 3.75787,-0.64013 5.84449,-0.44721 7.13143,0.65936 0.86124,0.74052 0.88423,0.86191 0.99702,5.26434 0.26825,10.47003 -2.42854,33.18099 -4.59172,38.669 -1.01345,2.57115 -1.57178,3.2315 -3.50586,4.14647 -5.04051,2.38454 -20.8483,5.81801 -23.69371,5.1463 z m 14.08129,-8.74398 c 2.43933,-3.20193 5.09664,-17.38568 3.83007,-20.44346 -0.76202,-1.83968 -2.27722,-2.04997 -3.93116,-0.54558 -1.58069,1.43776 -2.55067,4.34104 -3.50585,10.49355 -1.13305,7.29819 -1.00887,11.1205 0.38666,11.90147 0.79732,0.4462 2.31357,-0.21579 3.22028,-1.40598 z"
     id="path3785"
     inkscape:connector-curvature="0"
     transform="scale(0.74999998)" />
  <path
     style="fill:#ffffff;stroke-width:0.33170632"
     d="m 346.68825,264.26334 c -1.61878,-1.16969 -1.70609,-3.79794 -0.56785,-17.09344 1.06719,-12.46566 2.47976,-23.07484 3.36794,-25.29517 0.58927,-1.47308 3.16622,-3.88898 5.19667,-4.8719 2.13821,-1.03509 5.0656,-1.59163 5.59192,-1.0631 0.64466,0.64737 0.5026,17.0585 -0.20572,23.76678 -1.14713,10.86394 -2.35645,17.24339 -3.71943,19.62079 -2.13224,3.71919 -7.53109,6.47688 -9.66353,4.93604 z"
     id="path3787"
     inkscape:connector-curvature="0"
     transform="scale(0.74999998)" />
  <path
     style="fill:#ffffff;stroke-width:0.33170632"
     d="m 351.90311,212.00903 c -0.43331,-0.43331 -0.66341,-1.10569 -0.66341,-1.93856 0,-1.05982 0.23805,-1.51113 1.40975,-2.67263 1.69311,-1.67837 4.97967,-3.36628 6.99737,-3.59371 1.18961,-0.13409 1.59912,-0.0327 2.16871,0.53688 0.93428,0.93429 0.88593,1.60939 -0.24274,3.38912 -2.38615,3.76257 -7.7933,6.15527 -9.66968,4.2789 z"
     id="path3789"
     inkscape:connector-curvature="0"
     transform="scale(0.74999998)" />
  <path
     style="fill:#ffffff;stroke-width:0.33170632"
     d="m 389.33975,248.19151 c -0.76353,-0.62101 -0.78189,-0.75978 -0.73508,-5.55608 0.10808,-11.07301 4.92761,-42.0582 7.23628,-46.52269 1.20449,-2.32922 5.5865,-4.8152 8.11402,-4.60321 1.02512,0.086 1.241,0.2579 1.58292,1.26053 0.97779,2.86729 0.17531,13.3445 -2.05091,26.77664 -2.09404,12.63471 -3.87682,21.22155 -4.92858,23.73876 -0.76169,1.82297 -2.57002,3.59586 -4.69142,4.59947 -2.33781,1.10598 -3.45164,1.18141 -4.52723,0.30658 z"
     id="path3791"
     inkscape:connector-curvature="0"
     transform="scale(0.74999998)" />
  <path
     style="fill:#ffffff;stroke-width:0.33170632"
     d="m 434.68803,227.74188 c -0.82961,-0.82961 -1.02252,-2.0439 -0.97122,-6.11337 0.0522,-4.14212 0.62287,-8.95945 2.10529,-17.77275 2.07484,-12.33529 3.56732,-16.00936 7.25088,-17.84964 3.21268,-1.60503 4.59631,-1.34483 5.37367,1.01058 0.61282,1.85687 0.18259,11.07734 -0.84112,18.0265 -1.09879,7.45877 -1.53056,12.26643 -1.20995,13.47246 0.16386,0.61638 0.50511,0.99358 0.9592,1.06025 1.26434,0.18563 1.92079,-1.76923 3.91874,-11.66967 2.69628,-13.36088 3.84155,-15.77338 8.27556,-17.43235 1.81819,-0.68027 4.62352,-0.90926 5.3333,-0.43532 1.50812,1.007 1.5877,4.11183 0.33108,12.91774 -0.89341,6.26068 -1.08794,9.86899 -0.54998,10.20147 1.48909,0.9203 4.05093,-7.06062 6.65086,-20.71942 2.65599,-13.95339 4.16384,-17.29973 8.75937,-19.43956 2.08721,-0.97187 3.49232,-1.00433 4.63305,-0.10704 0.7566,0.59514 0.874,0.93474 0.874,2.52815 0,7.42538 -5.2306,30.07429 -7.92756,34.32695 -1.59101,2.50876 -5.85499,5.48881 -12.95781,9.05606 -3.12349,1.56871 -19.39101,7.30769 -24.51179,8.64745 -3.61844,0.94671 -4.77883,1.00826 -5.49557,0.29151 z"
     id="path3793"
     inkscape:connector-curvature="0"
     transform="scale(0.74999998)" />
  <path
     style="fill:#ffffff;stroke-width:0.33170632"
     d="m 508.82907,199.18805 c -0.78093,-0.54698 -0.78186,-0.55623 -0.59386,-5.88778 0.31914,-9.05052 3.13337,-24.41421 5.36624,-29.29589 1.4565,-3.1843 5.91908,-6.49276 9.38467,-6.9576 1.29612,-0.17384 1.33726,-0.14818 1.74555,1.08898 1.17121,3.54879 -1.08244,19.62442 -4.20255,29.97747 -2.14472,7.11654 -3.65388,9.52236 -6.89749,10.9956 -1.68165,0.7638 -3.77586,0.79835 -4.80256,0.0792 z"
     id="path3795"
     inkscape:connector-curvature="0"
     transform="scale(0.74999998)" />
  <path
     style="fill:#ffffff;stroke-width:0.33170632"
     d="m 515.79062,154.29882 c -0.44257,-0.10496 -0.85246,-0.33599 -0.91087,-0.5134 -0.35751,-1.08582 3.33971,-4.62418 6.13556,-5.87193 1.78026,-0.79451 4.56967,-1.09683 5.77996,-0.62644 2.29238,0.89096 -0.0607,4.13864 -4.19888,5.79527 -2.41534,0.96693 -5.51894,1.52168 -6.80577,1.2165 z"
     id="path3797"
     inkscape:connector-curvature="0"
     transform="scale(0.74999998)" />
  <path
     style="fill:#ffffff;stroke-width:0.33170632"
     d="m 554.0285,182.14927 c -1.66683,-0.65336 -1.79644,-4.1727 -0.44726,-12.14469 1.96042,-11.58368 4.82327,-21.08873 7.54189,-25.04012 1.1969,-1.73962 2.77866,-2.66577 8.11943,-4.75405 5.67017,-2.21708 10.98996,-3.50952 15.37108,-3.73442 4.87003,-0.24998 5.1229,-0.11293 5.1229,2.77642 0,5.52395 -4.9469,24.4079 -7.66927,29.27615 -2.36026,4.2207 -4.20311,5.66595 -7.22472,5.66595 -4.15133,0 -4.2821,-2.86526 -0.68126,-14.92678 2.54077,-8.51066 3.0005,-10.36981 3.07443,-12.43319 0.074,-2.0669 -0.43784,-2.82531 -1.90696,-2.82531 -2.71761,0 -4.4639,3.97865 -8.15769,18.58596 -3.22339,12.74707 -4.94313,16.35201 -8.78583,18.4169 -2.32152,1.24748 -3.37432,1.52228 -4.35674,1.13718 z"
     id="path3799"
     inkscape:connector-curvature="0"
     transform="scale(0.74999998)" />
  <path
     style="fill:#ffffff;stroke-width:0.33170632"
     d="m 613.72931,155.09524 c -0.39485,-1.02896 0.23063,-4.72863 2.02707,-11.9901 2.28825,-9.2494 4.3962,-16.60829 5.0468,-17.61844 0.45223,-0.70217 2.81956,-2.32405 9.76064,-6.68715 3.24289,-2.03844 6.4105,-5.01286 7.97272,-7.48646 0.71625,-1.1341 1.95651,-2.66506 2.75614,-3.40213 2.19578,-2.024 6.49018,-3.0839 7.51106,-1.85381 1.56405,1.88456 -3.825,26.42829 -8.47441,38.59566 -1.52878,4.00079 -5.74018,7.0536 -12.61242,9.14265 -5.65764,1.71984 -13.54515,2.45278 -13.9876,1.29978 z m 15.17264,-12.24664 c 3.0328,-6.23474 5.33688,-14.4346 4.82353,-17.16614 -0.19311,-1.02758 -0.37243,-1.2439 -1.03112,-1.2439 -0.51154,0 -1.08901,0.38643 -1.611,1.07805 -2.36517,3.13378 -6.58187,20.30808 -5.30068,21.58928 0.45703,0.45702 1.55504,-1.04159 3.11927,-4.25729 z"
     id="path3801"
     inkscape:connector-curvature="0"
     transform="scale(0.74999998)" />
  <path
     style="fill:#ffffff;stroke-width:0.33170632"
     d="m 12.567552,314.88397 c -1.937368,-0.55844 -0.391472,-3.07286 2.186578,-3.5565 2.711138,-0.50862 5.476787,0.42021 4.994385,1.67733 -0.459976,1.19868 -5.220156,2.44436 -7.180963,1.87917 z"
     id="path3803"
     inkscape:connector-curvature="0"
     transform="scale(0.74999998)" />
  <path
     style="fill:#ffffff;stroke-width:0.33170632"
     d="m 28.240675,309.84388 c -0.410486,-0.1605 -0.746339,-0.45331 -0.746339,-0.65068 0,-1.47365 3.03922,-4.4937 4.867355,-4.83666 3.025704,-0.56762 2.764109,2.87463 -0.35345,4.65094 -1.696838,0.96682 -2.804884,1.21281 -3.767566,0.8364 z"
     id="path3805"
     inkscape:connector-curvature="0"
     transform="scale(0.74999998)" />
  <path
     style="fill:#ffffff;stroke-width:0.33170632"
     d="m 40.759833,302.22888 c -0.425837,-0.26539 -0.38251,-0.52123 0.310853,-1.83551 2.014675,-3.81885 6.657735,-5.56014 6.657735,-2.49686 0,1.9576 -5.39612,5.31236 -6.968588,4.33237 z"
     id="path3807"
     inkscape:connector-curvature="0"
     transform="scale(0.74999998)" />
  <path
     style="fill:#ffffff;stroke-width:0.33170632"
     d="m 52.803941,291.26238 c -1.368361,-1.39691 4.113338,-5.61455 7.297272,-5.61455 2.758198,0 7.349054,2.96687 6.266293,4.04963 -0.224467,0.22447 -1.949031,0.37875 -4.444418,0.3976 -3.189528,0.0241 -4.304836,0.15517 -5.120849,0.6018 -1.432425,0.78403 -3.498063,1.07619 -3.998298,0.56552 z"
     id="path3809"
     inkscape:connector-curvature="0"
     transform="scale(0.74999998)" />
  <path
     style="fill:#ffffff;stroke-width:0.33170632"
     d="m 53.46944,278.8247 c -2.385164,-3.65065 -2.682578,-5.393 -1.0887,-6.37796 2.278809,-1.40823 3.918839,2.74991 3.038873,7.70478 l -0.231527,1.30368 z"
     id="path3811"
     inkscape:connector-curvature="0"
     transform="scale(0.74999998)" />
  <path
     style="fill:#ffffff;stroke-width:0.33170632"
     d="m 51.412048,263.34058 c -0.437187,-1.35317 -0.06651,-3.05338 1.099455,-5.04295 1.70282,-2.90565 3.17787,-2.589 3.17787,0.68219 0,2.95747 -1.425934,5.43881 -3.125486,5.43881 -0.613976,0 -0.885709,-0.25433 -1.151839,-1.07805 z"
     id="path3813"
     inkscape:connector-curvature="0"
     transform="scale(0.74999998)" />
  <path
     style="fill:#ffffff;stroke-width:0.33170632"
     d="m 56.767418,250.28249 c -0.570865,-0.25129 -0.519535,-1.63029 0.110072,-2.95709 0.696888,-1.46858 3.972078,-4.54466 4.69135,-4.40614 0.739723,0.14246 1.10639,1.9942 0.692029,3.4949 -0.474295,1.71775 -2.493109,3.73113 -3.917846,3.90729 -0.638534,0.0789 -1.347557,0.0614 -1.575605,-0.039 z"
     id="path3815"
     inkscape:connector-curvature="0"
     transform="scale(0.74999998)" />
  <path
     style="fill:#ffffff;stroke-width:0.33170632"
     d="m 66.637423,236.89229 c -1.253481,-0.30329 -1.165114,-1.10291 0.26463,-2.3946 2.418809,-2.18525 5.699643,-2.84193 6.207301,-1.24244 0.609985,1.92189 -3.654914,4.31864 -6.471931,3.63704 z"
     id="path3817"
     inkscape:connector-curvature="0"
     transform="scale(0.74999998)" />
  <path
     style="fill:#ffffff;stroke-width:0.33170632"
     d="m 83.552703,240.96995 c -3.347954,-4.16372 -3.955053,-5.56871 -2.557776,-5.91941 2.167588,-0.54403 3.629501,1.4806 4.02057,5.56816 0.117817,1.23146 0.17274,2.23195 0.122049,2.22332 -0.05069,-0.009 -0.76387,-0.85106 -1.584843,-1.87207 z"
     id="path3819"
     inkscape:connector-curvature="0"
     transform="scale(0.74999998)" />
  <path
     style="fill:#ffffff;stroke-width:0.33170632"
     d="m 81.976192,256.2089 c -0.125876,-0.31927 -0.233143,-1.78091 -0.23837,-3.24808 -0.01142,-3.20581 0.589004,-4.4641 2.130159,-4.4641 1.809565,0 2.841965,2.28104 2.015844,4.4539 -0.358031,0.94169 -2.908045,3.83876 -3.378897,3.83876 -0.164929,0 -0.40286,-0.26122 -0.528736,-0.58048 z"
     id="path3821"
     inkscape:connector-curvature="0"
     transform="scale(0.74999998)" />
  <path
     style="fill:#ffffff;stroke-width:0.33170632"
     d="m 73.93089,269.88897 c -1.318823,-1.58908 2.028394,-6.56703 4.621653,-6.87328 1.271147,-0.15011 1.523742,0.71958 0.840185,2.89279 -1.078061,3.42744 -4.095673,5.62662 -5.461838,3.98049 z"
     id="path3823"
     inkscape:connector-curvature="0"
     transform="scale(0.74999998)" />
  <path
     style="fill:#ffffff;stroke-width:0.33170632"
     d="m 64.534875,282.10963 c -0.494209,-0.49421 -0.166527,-2.05704 0.726583,-3.46532 1.716391,-2.70647 4.615004,-4.48932 5.127502,-3.15377 0.459066,1.19631 -1.165265,4.99504 -2.627786,6.14546 -0.842102,0.6624 -2.756493,0.94344 -3.226299,0.47363 z"
     id="path3825"
     inkscape:connector-curvature="0"
     transform="scale(0.74999998)" />
  <path
     style="fill:#ffffff;stroke-width:0.33170632"
     d="m 74.928339,294.1902 c -0.877328,-0.31403 -1.185859,-0.63059 -1.262836,-1.29568 -0.159269,-1.3761 0.95153,-1.93939 3.82444,-1.93939 1.971716,0 2.535537,0.12155 3.077403,0.66341 0.364877,0.36488 0.663413,0.88388 0.663413,1.15333 0,1.32702 -4.026207,2.2331 -6.30242,1.41833 z"
     id="path3827"
     inkscape:connector-curvature="0"
     transform="scale(0.74999998)" />
  <path
     style="fill:#ffffff;stroke-width:0.33170632"
     d="m 88.674624,291.14687 c -0.636006,-0.46591 -0.635609,-0.48278 0.03249,-1.37917 0.964903,-1.29461 4.027114,-2.81519 5.460188,-2.71133 1.055155,0.0765 1.170693,0.18571 1.267622,1.19848 0.07658,0.80017 -0.103513,1.33805 -0.638781,1.90782 -1.283591,1.36632 -4.823061,1.93538 -6.121522,0.9842 z"
     id="path3829"
     inkscape:connector-curvature="0"
     transform="scale(0.74999998)" />
  <path
     style="fill:#ffffff;stroke-width:0.33170632"
     d="m 103.5454,285.03757 c -0.40642,-0.12045 -1.04081,-0.47876 -1.40975,-0.79624 -1.95866,-1.68547 0.7968,-3.9008 4.85185,-3.9008 1.33757,0 1.93972,0.16484 2.44391,0.66903 0.61754,0.61754 0.631,0.74256 0.1749,1.62456 -0.78494,1.5179 -4.31952,2.91954 -6.06091,2.40345 z"
     id="path3831"
     inkscape:connector-curvature="0"
     transform="scale(0.74999998)" />
  <path
     style="fill:#ffffff;stroke-width:0.33170632"
     d="m 114.5914,274.92606 c -1.45504,-1.06395 0.79299,-4.48231 3.41138,-5.18737 2.54709,-0.68586 3.77647,0.9039 2.54322,3.28875 -1.00775,1.94877 -4.40474,3.0319 -5.9546,1.89862 z"
     id="path3833"
     inkscape:connector-curvature="0"
     transform="scale(0.74999998)" />
  <path
     style="fill:#ffffff;stroke-width:0.33170632"
     d="m 125.57934,264.87171 c -0.21252,-2.05905 0.16731,-4.6825 0.83204,-5.74691 0.47788,-0.7652 3.17946,-1.7751 4.31541,-1.61316 1.7241,0.24577 0.93253,2.27918 -2.44978,6.29311 -1.28375,1.52348 -2.37213,2.81091 -2.41861,2.86094 -0.0465,0.05 -0.17207,-0.75725 -0.27906,-1.79398 z"
     id="path3835"
     inkscape:connector-curvature="0"
     transform="scale(0.74999998)" />
  <path
     style="fill:#ffffff;stroke-width:0.33170632"
     d="m 134.30537,251.81678 c -0.2636,-0.49255 -0.23089,-0.89741 0.12872,-1.59281 0.63813,-1.23401 3.21117,-3.58169 4.70761,-4.29529 1.15433,-0.55046 1.21239,-0.54746 1.67661,0.0867 0.89479,1.22239 -0.23254,3.65502 -2.49268,5.37888 -1.68959,1.28869 -3.45726,1.47446 -4.02026,0.42249 z"
     id="path3837"
     inkscape:connector-curvature="0"
     transform="scale(0.74999998)" />
  <path
     style="fill:#ffffff;stroke-width:0.33170632"
     d="m 145.10303,240.13026 c -0.66822,-0.95402 -0.64261,-1.77229 0.10713,-3.42283 1.11058,-2.44494 3.77106,-3.91756 4.94917,-2.73944 0.59199,0.59198 0.48171,1.56596 -0.38682,3.41657 -1.46854,3.12908 -3.54552,4.35036 -4.66948,2.7457 z"
     id="path3839"
     inkscape:connector-curvature="0"
     transform="scale(0.74999998)" />
  <path
     style="fill:#ffffff;stroke-width:0.33170632"
     d="m 154.78663,229.0291 c -0.31926,-0.0834 -0.58048,-0.3889 -0.58048,-0.67882 0,-0.77366 1.89753,-3.59937 2.82526,-4.20724 2.63133,-1.72411 5.28831,1.34108 3.14244,3.62524 -1.12609,1.19868 -3.49948,1.75414 -5.38722,1.26082 z"
     id="path3841"
     inkscape:connector-curvature="0"
     transform="scale(0.74999998)" />
  <path
     style="fill:#ffffff;stroke-width:0.33170632"
     d="m 167.39147,219.75548 c -0.73171,-0.20906 -0.72118,-0.60449 0.062,-2.32946 0.71019,-1.56418 1.27435,-1.94892 3.58418,-2.44429 2.96825,-0.63657 4.23815,0.51945 2.7078,2.46497 -1.24652,1.58469 -4.61034,2.80696 -6.354,2.30878 z"
     id="path3843"
     inkscape:connector-curvature="0"
     transform="scale(0.74999998)" />
  <path
     style="fill:#ffffff;stroke-width:0.33170632"
     d="m 181.07436,213.33585 c -0.84759,-0.84758 -0.8404,-1.67576 0.0241,-2.77477 0.5275,-0.6706 0.9812,-0.874 1.94962,-0.874 0.69417,0 1.44046,0.21488 1.65842,0.47751 0.70484,0.84927 0.27164,2.2607 -0.9446,3.07762 -1.38265,0.92871 -1.83664,0.94452 -2.68752,0.0936 z"
     id="path3845"
     inkscape:connector-curvature="0"
     transform="scale(0.74999998)" />
</svg>
